STARTFONT 2.1
COMMENT
COMMENT Shinonome 16dot font for ISO 8859-1
COMMENT
COMMENT The original is designed by
COMMENT Yasuyuki Furukawa <Furukawa.Yasuyuki@fujixerox.co.jp>, 2000.
COMMENT (Public Domain)
COMMENT
COMMENT Modified and Maintained by /efont/.
COMMENT
COMMENT (c) /efont/ -- Efont Open Laboratory 2001
COMMENT http://openlab.ring.gr.jp/efont/
COMMENT
FONT -@FOUNDRY@-@FAMILY@-Medium-R-Normal--16-150-75-75-C-80-ISO8859-1
SIZE 16 75 75
FONTBOUNDINGBOX 8 16 0 -2
STARTPROPERTIES 20
FONTNAME_REGISTRY ""
FOUNDRY "@FOUNDRY@"
FAMILY_NAME "@FAMILY@"
WEIGHT_NAME "Medium"
SLANT "R"
SETWIDTH_NAME "Normal"
ADD_STYLE_NAME ""
PIXEL_SIZE 16
POINT_SIZE 150
RESOLUTION_X 75
RESOLUTION_Y 75
SPACING "C"
AVERAGE_WIDTH 80
CHARSET_REGISTRY "ISO8859"
CHARSET_ENCODING "1"
DEFAULT_CHAR 32
FONT_DESCENT 2
FONT_ASCENT 14
COPYRIGHT "Public Domain"
_XMBDFED_INFO "Edited with xmbdfed 4.4."
ENDPROPERTIES
CHARS 221
STARTCHAR 01
ENCODING 1
SWIDTH 480 0
DWIDTH 8 0
BBX 8 16 0 -2
BITMAP
...@....
...@....
..@@@...
..@@@...
.@@@@@..
.@@@@@..
@@@@@@@.
@@@@@@@.
.@@@@@..
.@@@@@..
..@@@...
..@@@...
...@....
...@....
........
........
ENDCHAR
STARTCHAR 02
ENCODING 2
SWIDTH 480 0
DWIDTH 8 0
BBX 8 16 0 -2
BITMAP
.@.@.@.@
@.@.@.@.
.@.@.@.@
@.@.@.@.
.@.@.@.@
@.@.@.@.
.@.@.@.@
@.@.@.@.
.@.@.@.@
@.@.@.@.
.@.@.@.@
@.@.@.@.
.@.@.@.@
@.@.@.@.
........
........
ENDCHAR
STARTCHAR 03
ENCODING 3
SWIDTH 480 0
DWIDTH 8 0
BBX 8 16 0 -2
BITMAP
........
@...@...
@...@...
@...@...
@@@@@...
@...@...
@...@...
@...@...
........
..@@@@@.
....@...
....@...
....@...
....@...
....@...
....@...
ENDCHAR
STARTCHAR 04
ENCODING 4
SWIDTH 480 0
DWIDTH 8 0
BBX 8 16 0 -2
BITMAP
........
@@@@@...
@.......
@.......
@@@@....
@.......
@.......
@.......
..@@@@@.
..@.....
..@.....
..@@@@..
..@.....
..@.....
..@.....
........
ENDCHAR
STARTCHAR 05
ENCODING 5
SWIDTH 480 0
DWIDTH 8 0
BBX 8 16 0 -2
BITMAP
........
.@@@....
@...@...
@.......
@.......
@.......
@...@...
.@@@....
........
..@@@@..
..@...@.
..@...@.
..@@@@..
..@.@...
..@..@..
..@...@.
ENDCHAR
STARTCHAR 06
ENCODING 6
SWIDTH 480 0
DWIDTH 8 0
BBX 8 16 0 -2
BITMAP
........
@.......
@.......
@.......
@.......
@.......
@.......
@@@@@...
........
..@@@@@.
..@.....
..@.....
..@@@@..
..@.....
..@.....
..@.....
ENDCHAR
STARTCHAR 07
ENCODING 7
SWIDTH 480 0
DWIDTH 8 0
BBX 8 16 0 -2
BITMAP
........
........
..@@@...
.@...@..
.@...@..
.@...@..
..@@@...
........
........
........
........
........
........
........
........
........
ENDCHAR
STARTCHAR 8
ENCODING 8
SWIDTH 480 0
DWIDTH 8 0
BBX 8 16 0 -2
BITMAP
........
........
...@....
...@....
...@....
...@....
@@@@@@@.
...@....
...@....
...@....
...@....
........
@@@@@@@.
........
........
........
ENDCHAR
STARTCHAR 9
ENCODING 9
SWIDTH 480 0
DWIDTH 8 0
BBX 8 16 0 -2
BITMAP
........
@....@..
@@...@..
@.@..@..
@.@..@..
@..@.@..
@..@.@..
@...@@..
@....@..
..@.....
..@.....
..@.....
..@.....
..@.....
..@.....
..@@@@@.
ENDCHAR
STARTCHAR a
ENCODING 10
SWIDTH 480 0
DWIDTH 8 0
BBX 8 16 0 -2
BITMAP
........
........
@...@...
@...@...
@...@...
.@.@....
.@.@....
..@.....
........
..@@@@@.
....@...
....@...
....@...
....@...
....@...
........
ENDCHAR
STARTCHAR b
ENCODING 11
SWIDTH 480 0
DWIDTH 8 0
BBX 8 16 0 -2
BITMAP
...@....
...@....
...@....
...@....
...@....
...@....
...@....
...@....
@@@@....
........
........
........
........
........
........
........
ENDCHAR
STARTCHAR c
ENCODING 12
SWIDTH 480 0
DWIDTH 8 0
BBX 8 16 0 -2
BITMAP
........
........
........
........
........
........
........
........
@@@@....
...@....
...@....
...@....
...@....
...@....
...@....
...@....
ENDCHAR
STARTCHAR d
ENCODING 13
SWIDTH 480 0
DWIDTH 8 0
BBX 8 16 0 -2
BITMAP
........
........
........
........
........
........
........
........
...@@@@@
...@....
...@....
...@....
...@....
...@....
...@....
...@....
ENDCHAR
STARTCHAR e
ENCODING 14
SWIDTH 480 0
DWIDTH 8 0
BBX 8 16 0 -2
BITMAP
...@....
...@....
...@....
...@....
...@....
...@....
...@....
...@....
...@@@@@
........
........
........
........
........
........
........
ENDCHAR
STARTCHAR f
ENCODING 15
SWIDTH 480 0
DWIDTH 8 0
BBX 8 16 0 -2
BITMAP
...@....
...@....
...@....
...@....
...@....
...@....
...@....
...@....
@@@@@@@@
...@....
...@....
...@....
...@....
...@....
...@....
...@....
ENDCHAR
STARTCHAR 10
ENCODING 16
SWIDTH 480 0
DWIDTH 8 0
BBX 8 16 0 -2
BITMAP
........
........
@@@@@@@@
........
........
........
........
........
........
........
........
........
........
........
........
........
ENDCHAR
STARTCHAR 11
ENCODING 17
SWIDTH 480 0
DWIDTH 8 0
BBX 8 16 0 -2
BITMAP
........
........
........
........
........
@@@@@@@@
........
........
........
........
........
........
........
........
........
........
ENDCHAR
STARTCHAR 12
ENCODING 18
SWIDTH 480 0
DWIDTH 8 0
BBX 8 16 0 -2
BITMAP
........
........
........
........
........
........
........
........
@@@@@@@@
........
........
........
........
........
........
........
ENDCHAR
STARTCHAR 13
ENCODING 19
SWIDTH 480 0
DWIDTH 8 0
BBX 8 16 0 -2
BITMAP
........
........
........
........
........
........
........
........
........
........
........
@@@@@@@@
........
........
........
........
ENDCHAR
STARTCHAR 14
ENCODING 20
SWIDTH 480 0
DWIDTH 8 0
BBX 8 16 0 -2
BITMAP
........
........
........
........
........
........
........
........
........
........
........
........
........
........
@@@@@@@@
........
ENDCHAR
STARTCHAR 15
ENCODING 21
SWIDTH 480 0
DWIDTH 8 0
BBX 8 16 0 -2
BITMAP
...@....
...@....
...@....
...@....
...@....
...@....
...@....
...@....
...@@@@@
...@....
...@....
...@....
...@....
...@....
...@....
...@....
ENDCHAR
STARTCHAR 16
ENCODING 22
SWIDTH 480 0
DWIDTH 8 0
BBX 8 16 0 -2
BITMAP
...@....
...@....
...@....
...@....
...@....
...@....
...@....
...@....
@@@@....
...@....
...@....
...@....
...@....
...@....
...@....
...@....
ENDCHAR
STARTCHAR 17
ENCODING 23
SWIDTH 480 0
DWIDTH 8 0
BBX 8 16 0 -2
BITMAP
...@....
...@....
...@....
...@....
...@....
...@....
...@....
...@....
@@@@@@@@
........
........
........
........
........
........
........
ENDCHAR
STARTCHAR 18
ENCODING 24
SWIDTH 480 0
DWIDTH 8 0
BBX 8 16 0 -2
BITMAP
........
........
........
........
........
........
........
........
@@@@@@@@
...@....
...@....
...@....
...@....
...@....
...@....
...@....
ENDCHAR
STARTCHAR 19
ENCODING 25
SWIDTH 480 0
DWIDTH 8 0
BBX 8 16 0 -2
BITMAP
...@....
...@....
...@....
...@....
...@....
...@....
...@....
...@....
...@....
...@....
...@....
...@....
...@....
...@....
...@....
...@....
ENDCHAR
STARTCHAR 1a
ENCODING 26
SWIDTH 480 0
DWIDTH 8 0
BBX 8 16 0 -2
BITMAP
........
........
......@.
....@@..
..@@....
@@......
..@@....
....@@..
......@.
........
@@@@@@@.
........
@@@@@@@.
........
........
........
ENDCHAR
STARTCHAR 1b
ENCODING 27
SWIDTH 480 0
DWIDTH 8 0
BBX 8 16 0 -2
BITMAP
........
........
........
@.......
.@@.....
...@@...
.....@@.
...@@...
.@@.....
@.......
@@@@@@@.
........
@@@@@@@.
........
........
........
ENDCHAR
STARTCHAR 1c
ENCODING 28
SWIDTH 480 0
DWIDTH 8 0
BBX 8 16 0 -2
BITMAP
........
........
........
........
........
........
........
@@@@@@@.
..@..@..
..@..@..
..@..@..
..@..@..
.@...@..
@....@..
........
........
ENDCHAR
STARTCHAR 1d
ENCODING 29
SWIDTH 480 0
DWIDTH 8 0
BBX 8 16 0 -2
BITMAP
........
........
........
........
......@.
.....@..
....@...
@@@@@@@.
...@....
@@@@@@@.
..@.....
.@......
@.......
........
........
........
ENDCHAR
STARTCHAR 1e
ENCODING 30
SWIDTH 480 0
DWIDTH 8 0
BBX 8 16 0 -2
BITMAP
........
........
........
........
....@@..
...@..@.
...@....
...@....
...@....
.@@@@@..
...@....
...@....
..@@@@..
.@.@..@.
..@.....
........
ENDCHAR
STARTCHAR 1f
ENCODING 31
SWIDTH 480 0
DWIDTH 8 0
BBX 8 16 0 -2
BITMAP
........
........
........
........
........
........
........
........
...@....
........
........
........
........
........
........
........
ENDCHAR
STARTCHAR 20
ENCODING 32
SWIDTH 480 0
DWIDTH 8 0
BBX 8 16 0 -2
BITMAP
........
........
........
........
........
........
........
........
........
........
........
........
........
........
........
........
ENDCHAR
STARTCHAR 21
ENCODING 33
SWIDTH 480 0
DWIDTH 8 0
BBX 8 16 0 -2
BITMAP
........
...@@...
...@@...
...@@...
...@@...
...@....
...@....
...@....
...@....
...@....
...@....
........
........
...@....
...@....
........
ENDCHAR # !
STARTCHAR 22
ENCODING 34
SWIDTH 480 0
DWIDTH 8 0
BBX 8 16 0 -2
BITMAP
.@@.@@..
..@..@..
..@..@..
.@..@...
........
........
........
........
........
........
........
........
........
........
........
........
ENDCHAR # "
STARTCHAR 23
ENCODING 35
SWIDTH 480 0
DWIDTH 8 0
BBX 8 16 0 -2
BITMAP
........
...@..@.
...@..@.
...@..@.
.@@@@@@@
..@..@..
..@..@..
..@..@..
..@..@..
..@..@..
@@@@@@@.
.@..@...
.@..@...
.@..@...
.@..@...
........
ENDCHAR # #
STARTCHAR 24
ENCODING 36
SWIDTH 480 0
DWIDTH 8 0
BBX 8 16 0 -2
BITMAP
...@....
..@@@...
.@.@.@..
@..@..@.
@..@..@.
@..@....
.@.@....
..@@@...
...@.@..
...@..@.
@..@..@.
@..@..@.
.@.@.@..
..@@@...
...@....
...@....
ENDCHAR # $
STARTCHAR 25
ENCODING 37
SWIDTH 480 0
DWIDTH 8 0
BBX 8 16 0 -2
BITMAP
.......@
.@@....@
@..@..@.
@..@..@.
@..@.@..
@..@.@..
.@@.@...
....@...
...@....
...@.@@.
..@.@..@
..@.@..@
.@..@..@
.@..@..@
@....@@.
@.......
ENDCHAR # %
STARTCHAR 26
ENCODING 38
SWIDTH 480 0
DWIDTH 8 0
BBX 8 16 0 -2
BITMAP
........
..@@@...
.@...@..
.@...@..
.@...@..
..@.@...
...@....
..@@....
.@..@.@.
@...@.@.
@....@..
@....@..
.@..@.@.
..@@...@
........
........
ENDCHAR # &
STARTCHAR 27
ENCODING 39
SWIDTH 480 0
DWIDTH 8 0
BBX 8 16 0 -2
BITMAP
.@@.....
..@.....
..@.....
.@......
........
........
........
........
........
........
........
........
........
........
........
........
ENDCHAR # '
STARTCHAR 28
ENCODING 40
SWIDTH 480 0
DWIDTH 8 0
BBX 8 16 0 -2
BITMAP
........
......@.
.....@..
....@...
....@...
...@....
...@....
...@....
...@....
...@....
...@....
...@....
....@...
....@...
.....@..
......@.
ENDCHAR # (
STARTCHAR 29
ENCODING 41
SWIDTH 480 0
DWIDTH 8 0
BBX 8 16 0 -2
BITMAP
........
.@......
..@.....
...@....
...@....
....@...
....@...
....@...
....@...
....@...
....@...
....@...
...@....
...@....
..@.....
.@......
ENDCHAR # )
STARTCHAR 2a
ENCODING 42
SWIDTH 480 0
DWIDTH 8 0
BBX 8 16 0 -2
BITMAP
........
........
........
........
...@....
@..@..@.
.@.@.@..
..@@@...
.@.@.@..
@..@..@.
...@....
........
........
........
........
........
ENDCHAR # *
STARTCHAR 2b
ENCODING 43
SWIDTH 480 0
DWIDTH 8 0
BBX 8 16 0 -2
BITMAP
........
........
........
...@....
...@....
...@....
...@....
@@@@@@@.
...@....
...@....
...@....
...@....
........
........
........
........
ENDCHAR # +
STARTCHAR 2c
ENCODING 44
SWIDTH 480 0
DWIDTH 8 0
BBX 8 16 0 -2
BITMAP
........
........
........
........
........
........
........
........
........
........
........
........
.@@.....
..@.....
..@.....
.@......
ENDCHAR # ,
STARTCHAR 2d
ENCODING 45
SWIDTH 480 0
DWIDTH 8 0
BBX 8 16 0 -2
BITMAP
........
........
........
........
........
........
........
@@@@@@@.
........
........
........
........
........
........
........
........
ENDCHAR # -
STARTCHAR 2e
ENCODING 46
SWIDTH 480 0
DWIDTH 8 0
BBX 8 16 0 -2
BITMAP
........
........
........
........
........
........
........
........
........
........
........
........
.@@.....
.@@.....
........
........
ENDCHAR # .
STARTCHAR 2f
ENCODING 47
SWIDTH 480 0
DWIDTH 8 0
BBX 8 16 0 -2
BITMAP
........
......@.
......@.
.....@..
.....@..
....@...
....@...
...@....
...@....
..@.....
..@.....
.@......
.@......
@.......
@.......
........
ENDCHAR # /
STARTCHAR 30
ENCODING 48
SWIDTH 480 0
DWIDTH 8 0
BBX 8 16 0 -2
BITMAP
........
...@@...
..@..@..
..@..@..
.@....@.
.@....@.
.@....@.
.@....@.
.@....@.
.@....@.
.@....@.
..@..@..
..@..@..
...@@...
........
........
ENDCHAR # 0
STARTCHAR 31
ENCODING 49
SWIDTH 480 0
DWIDTH 8 0
BBX 8 16 0 -2
BITMAP
........
...@....
...@....
..@@....
.@.@....
...@....
...@....
...@....
...@....
...@....
...@....
...@....
...@....
...@....
........
........
ENDCHAR # 1
STARTCHAR 32
ENCODING 50
SWIDTH 480 0
DWIDTH 8 0
BBX 8 16 0 -2
BITMAP
........
...@@...
..@..@..
.@....@.
.@....@.
......@.
.....@..
....@...
...@....
..@.....
..@.....
.@......
.@......
.@@@@@@.
........
........
ENDCHAR # 2
STARTCHAR 33
ENCODING 51
SWIDTH 480 0
DWIDTH 8 0
BBX 8 16 0 -2
BITMAP
........
..@@@...
.@...@..
@.....@.
@.....@.
......@.
.....@..
..@@@...
.....@..
......@.
@.....@.
@.....@.
.@...@..
..@@@...
........
........
ENDCHAR # 3
STARTCHAR 34
ENCODING 52
SWIDTH 480 0
DWIDTH 8 0
BBX 8 16 0 -2
BITMAP
........
....@...
...@@...
...@@...
..@.@...
..@.@...
.@..@...
.@..@...
@...@...
@@@@@@@.
....@...
....@...
....@...
....@...
........
........
ENDCHAR # 4
STARTCHAR 35
ENCODING 53
SWIDTH 480 0
DWIDTH 8 0
BBX 8 16 0 -2
BITMAP
........
.@@@@@..
.@......
.@......
.@......
@.@@@...
@@...@..
@.....@.
......@.
......@.
@.....@.
@.....@.
.@...@..
..@@@...
........
........
ENDCHAR # 5
STARTCHAR 36
ENCODING 54
SWIDTH 480 0
DWIDTH 8 0
BBX 8 16 0 -2
BITMAP
........
..@@@...
.@...@..
.@......
@.......
@.......
@.@@@...
@@...@..
@.....@.
@.....@.
@.....@.
@.....@.
.@...@..
..@@@...
........
........
ENDCHAR # 6
STARTCHAR 37
ENCODING 55
SWIDTH 480 0
DWIDTH 8 0
BBX 8 16 0 -2
BITMAP
........
@@@@@@@.
......@.
.....@..
.....@..
....@...
....@...
....@...
....@...
...@....
...@....
...@....
...@....
...@....
...@....
........
ENDCHAR # 7
STARTCHAR 38
ENCODING 56
SWIDTH 480 0
DWIDTH 8 0
BBX 8 16 0 -2
BITMAP
........
..@@@...
.@...@..
@.....@.
@.....@.
@.....@.
.@...@..
..@@@...
.@...@..
@.....@.
@.....@.
@.....@.
.@...@..
..@@@...
........
........
ENDCHAR # 8
STARTCHAR 39
ENCODING 57
SWIDTH 480 0
DWIDTH 8 0
BBX 8 16 0 -2
BITMAP
........
..@@@...
.@...@..
@.....@.
@.....@.
@.....@.
@.....@.
.@...@@.
..@@@.@.
......@.
......@.
@.....@.
.@...@..
..@@@...
........
........
ENDCHAR # 9
STARTCHAR 3a
ENCODING 58
SWIDTH 480 0
DWIDTH 8 0
BBX 8 16 0 -2
BITMAP
........
........
........
........
...@@...
...@@...
........
........
........
........
........
...@@...
...@@...
........
........
........
ENDCHAR # :
STARTCHAR 3b
ENCODING 59
SWIDTH 480 0
DWIDTH 8 0
BBX 8 16 0 -2
BITMAP
........
........
........
........
...@@...
...@@...
........
........
........
........
...@@...
....@...
....@...
...@....
........
........
ENDCHAR # ;
STARTCHAR 3c
ENCODING 60
SWIDTH 480 0
DWIDTH 8 0
BBX 8 16 0 -2
BITMAP
........
........
........
......@.
.....@..
....@...
...@....
..@.....
..@.....
...@....
....@...
.....@..
......@.
........
........
........
ENDCHAR # <
STARTCHAR 3d
ENCODING 61
SWIDTH 480 0
DWIDTH 8 0
BBX 8 16 0 -2
BITMAP
........
........
........
........
........
@@@@@@@.
........
........
........
@@@@@@@.
........
........
........
........
........
........
ENDCHAR # =
STARTCHAR 3e
ENCODING 62
SWIDTH 480 0
DWIDTH 8 0
BBX 8 16 0 -2
BITMAP
........
........
........
.@......
..@.....
...@....
....@...
.....@..
.....@..
....@...
...@....
..@.....
.@......
........
........
........
ENDCHAR # >
STARTCHAR 3f
ENCODING 63
SWIDTH 480 0
DWIDTH 8 0
BBX 8 16 0 -2
BITMAP
........
..@@@...
.@...@..
@.....@.
@.....@.
@.....@.
.....@..
....@...
....@...
...@....
...@....
........
........
...@....
...@....
........
ENDCHAR # ?
STARTCHAR 40
ENCODING 64
SWIDTH 480 0
DWIDTH 8 0
BBX 8 16 0 -2
BITMAP
........
...@@...
..@..@..
.@....@.
.@.@@.@.
@.@@.@.@
@.@..@.@
@.@..@.@
@.@..@.@
@..@@.@.
.@......
.@......
..@...@.
...@@@..
........
........
ENDCHAR # @
STARTCHAR 41
ENCODING 65
SWIDTH 480 0
DWIDTH 8 0
BBX 8 16 0 -2
BITMAP
........
...@....
...@....
..@.@...
..@.@...
..@.@...
.@...@..
.@...@..
.@...@..
.@@@@@..
@.....@.
@.....@.
@.....@.
@.....@.
........
........
ENDCHAR # A
STARTCHAR 42
ENCODING 66
SWIDTH 480 0
DWIDTH 8 0
BBX 8 16 0 -2
BITMAP
........
@@@@....
@...@...
@....@..
@....@..
@....@..
@...@...
@@@@@...
@....@..
@.....@.
@.....@.
@.....@.
@....@..
@@@@@...
........
........
ENDCHAR # B
STARTCHAR 43
ENCODING 67
SWIDTH 480 0
DWIDTH 8 0
BBX 8 16 0 -2
BITMAP
........
..@@@...
.@...@..
.@....@.
@.......
@.......
@.......
@.......
@.......
@.......
@.......
.@....@.
.@...@..
..@@@...
........
........
ENDCHAR # C
STARTCHAR 44
ENCODING 68
SWIDTH 480 0
DWIDTH 8 0
BBX 8 16 0 -2
BITMAP
........
@@@@....
@...@...
@....@..
@....@..
@.....@.
@.....@.
@.....@.
@.....@.
@.....@.
@....@..
@....@..
@...@...
@@@@....
........
........
ENDCHAR # D
STARTCHAR 45
ENCODING 69
SWIDTH 480 0
DWIDTH 8 0
BBX 8 16 0 -2
BITMAP
........
@@@@@@@.
@.......
@.......
@.......
@.......
@.......
@@@@@@..
@.......
@.......
@.......
@.......
@.......
@@@@@@@.
........
........
ENDCHAR # E
STARTCHAR 46
ENCODING 70
SWIDTH 480 0
DWIDTH 8 0
BBX 8 16 0 -2
BITMAP
........
@@@@@@@.
@.......
@.......
@.......
@.......
@.......
@@@@@@..
@.......
@.......
@.......
@.......
@.......
@.......
........
........
ENDCHAR # F
STARTCHAR 47
ENCODING 71
SWIDTH 480 0
DWIDTH 8 0
BBX 8 16 0 -2
BITMAP
........
...@@...
..@..@..
.@....@.
.@......
@.......
@.......
@...@@@.
@.....@.
@.....@.
@.....@.
.@....@.
.@@..@@.
...@@.@.
........
........
ENDCHAR # G
STARTCHAR 48
ENCODING 72
SWIDTH 480 0
DWIDTH 8 0
BBX 8 16 0 -2
BITMAP
........
@.....@.
@.....@.
@.....@.
@.....@.
@.....@.
@.....@.
@@@@@@@.
@.....@.
@.....@.
@.....@.
@.....@.
@.....@.
@.....@.
........
........
ENDCHAR # H
STARTCHAR 49
ENCODING 73
SWIDTH 480 0
DWIDTH 8 0
BBX 8 16 0 -2
BITMAP
........
..@@@...
...@....
...@....
...@....
...@....
...@....
...@....
...@....
...@....
...@....
...@....
...@....
..@@@...
........
........
ENDCHAR # I
STARTCHAR 4a
ENCODING 74
SWIDTH 480 0
DWIDTH 8 0
BBX 8 16 0 -2
BITMAP
........
......@.
......@.
......@.
......@.
......@.
......@.
......@.
......@.
......@.
......@.
.@....@.
..@..@..
...@@...
........
........
ENDCHAR # J
STARTCHAR 4b
ENCODING 75
SWIDTH 480 0
DWIDTH 8 0
BBX 8 16 0 -2
BITMAP
........
.@....@.
.@....@.
.@...@..
.@...@..
.@..@...
.@.@@...
.@@.@...
.@@..@..
.@...@..
.@....@.
.@....@.
.@.....@
.@.....@
........
........
ENDCHAR # K
STARTCHAR 4c
ENCODING 76
SWIDTH 480 0
DWIDTH 8 0
BBX 8 16 0 -2
BITMAP
........
.@......
.@......
.@......
.@......
.@......
.@......
.@......
.@......
.@......
.@......
.@......
.@......
.@@@@@@.
........
........
ENDCHAR # L
STARTCHAR 4d
ENCODING 77
SWIDTH 480 0
DWIDTH 8 0
BBX 8 16 0 -2
BITMAP
........
@.....@.
@.....@.
@@...@@.
@@...@@.
@@...@@.
@.@.@.@.
@.@.@.@.
@.@.@.@.
@..@..@.
@..@..@.
@..@..@.
@..@..@.
@.....@.
........
........
ENDCHAR # M
STARTCHAR 4e
ENCODING 78
SWIDTH 480 0
DWIDTH 8 0
BBX 8 16 0 -2
BITMAP
........
@.....@.
@@....@.
@@....@.
@.@...@.
@.@...@.
@..@..@.
@..@..@.
@..@..@.
@...@.@.
@...@.@.
@....@@.
@....@@.
@.....@.
........
........
ENDCHAR # N
STARTCHAR 4f
ENCODING 79
SWIDTH 480 0
DWIDTH 8 0
BBX 8 16 0 -2
BITMAP
........
..@@@...
.@...@..
.@...@..
@.....@.
@.....@.
@.....@.
@.....@.
@.....@.
@.....@.
@.....@.
.@...@..
.@...@..
..@@@...
........
........
ENDCHAR # O
STARTCHAR 50
ENCODING 80
SWIDTH 480 0
DWIDTH 8 0
BBX 8 16 0 -2
BITMAP
........
@@@@@...
@....@..
@.....@.
@.....@.
@.....@.
@....@..
@@@@@...
@.......
@.......
@.......
@.......
@.......
@.......
........
........
ENDCHAR # P
STARTCHAR 51
ENCODING 81
SWIDTH 480 0
DWIDTH 8 0
BBX 8 16 0 -2
BITMAP
........
..@@@...
.@...@..
.@...@..
@.....@.
@.....@.
@.....@.
@.....@.
@.....@.
@.....@.
@.@@@.@.
.@...@..
.@...@..
..@@@...
....@...
.....@@.
ENDCHAR # Q
STARTCHAR 52
ENCODING 82
SWIDTH 480 0
DWIDTH 8 0
BBX 8 16 0 -2
BITMAP
........
@@@@@...
@....@..
@.....@.
@.....@.
@.....@.
@....@..
@@@@@...
@...@...
@....@..
@....@..
@....@..
@.....@.
@.....@.
........
........
ENDCHAR # R
STARTCHAR 53
ENCODING 83
SWIDTH 480 0
DWIDTH 8 0
BBX 8 16 0 -2
BITMAP
........
..@@@...
.@...@..
@.....@.
@.....@.
@.......
.@@.....
...@@...
.....@..
......@.
@.....@.
@.....@.
.@...@..
..@@@...
........
........
ENDCHAR # S
STARTCHAR 54
ENCODING 84
SWIDTH 480 0
DWIDTH 8 0
BBX 8 16 0 -2
BITMAP
........
@@@@@@@.
...@....
...@....
...@....
...@....
...@....
...@....
...@....
...@....
...@....
...@....
...@....
...@....
........
........
ENDCHAR # T
STARTCHAR 55
ENCODING 85
SWIDTH 480 0
DWIDTH 8 0
BBX 8 16 0 -2
BITMAP
........
@.....@.
@.....@.
@.....@.
@.....@.
@.....@.
@.....@.
@.....@.
@.....@.
@.....@.
@.....@.
@.....@.
.@...@..
..@@@...
........
........
ENDCHAR # U
STARTCHAR 56
ENCODING 86
SWIDTH 480 0
DWIDTH 8 0
BBX 8 16 0 -2
BITMAP
........
@.....@.
@.....@.
@.....@.
@.....@.
.@...@..
.@...@..
.@...@..
..@.@...
..@.@...
..@.@...
...@....
...@....
...@....
........
........
ENDCHAR # V
STARTCHAR 57
ENCODING 87
SWIDTH 480 0
DWIDTH 8 0
BBX 8 16 0 -2
BITMAP
........
@..@..@.
@..@..@.
@..@..@.
@..@..@.
@..@..@.
@..@..@.
@.@.@.@.
@.@.@.@.
.@@.@@..
.@...@..
.@...@..
.@...@..
.@...@..
........
........
ENDCHAR # W
STARTCHAR 58
ENCODING 88
SWIDTH 480 0
DWIDTH 8 0
BBX 8 16 0 -2
BITMAP
........
@.....@.
.@...@..
.@...@..
..@.@...
..@.@...
...@....
..@.@...
..@.@...
..@.@...
.@...@..
.@...@..
@.....@.
@.....@.
........
........
ENDCHAR # X
STARTCHAR 59
ENCODING 89
SWIDTH 480 0
DWIDTH 8 0
BBX 8 16 0 -2
BITMAP
........
@.....@.
@.....@.
.@...@..
.@...@..
.@...@..
..@.@...
..@.@...
...@....
...@....
...@....
...@....
...@....
...@....
........
........
ENDCHAR # Y
STARTCHAR 5a
ENCODING 90
SWIDTH 480 0
DWIDTH 8 0
BBX 8 16 0 -2
BITMAP
........
@@@@@@@.
.....@..
.....@..
....@...
....@...
...@....
...@....
..@.....
..@.....
.@......
.@......
@.......
@@@@@@@.
........
........
ENDCHAR # Z
STARTCHAR 5b
ENCODING 91
SWIDTH 480 0
DWIDTH 8 0
BBX 8 16 0 -2
BITMAP
...@@@@.
...@....
...@....
...@....
...@....
...@....
...@....
...@....
...@....
...@....
...@....
...@....
...@....
...@....
...@....
...@@@@.
ENDCHAR # [
STARTCHAR 5c
ENCODING 92
SWIDTH 480 0
DWIDTH 8 0
BBX 8 16 0 -2
BITMAP
........
@.......
@.......
.@......
.@......
..@.....
..@.....
...@....
...@....
....@...
....@...
.....@..
.....@..
......@.
......@.
........
ENDCHAR # \
STARTCHAR 5d
ENCODING 93
SWIDTH 480 0
DWIDTH 8 0
BBX 8 16 0 -2
BITMAP
@@@@....
...@....
...@....
...@....
...@....
...@....
...@....
...@....
...@....
...@....
...@....
...@....
...@....
...@....
...@....
@@@@....
ENDCHAR # ]
STARTCHAR 5e
ENCODING 94
SWIDTH 480 0
DWIDTH 8 0
BBX 8 16 0 -2
BITMAP
...@....
..@.@...
.@...@..
@.....@.
........
........
........
........
........
........
........
........
........
........
........
........
ENDCHAR # ^
STARTCHAR 5f
ENCODING 95
SWIDTH 480 0
DWIDTH 8 0
BBX 8 16 0 -2
BITMAP
........
........
........
........
........
........
........
........
........
........
........
........
........
........
@@@@@@@.
........
ENDCHAR # _
STARTCHAR 60
ENCODING 96
SWIDTH 480 0
DWIDTH 8 0
BBX 8 16 0 -2
BITMAP
..@@....
..@.....
..@.....
...@....
........
........
........
........
........
........
........
........
........
........
........
........
ENDCHAR # `
STARTCHAR 61
ENCODING 97
SWIDTH 480 0
DWIDTH 8 0
BBX 8 16 0 -2
BITMAP
........
........
........
........
........
..@@@@..
.@....@.
......@.
..@@@@@.
.@....@.
@.....@.
@.....@.
@....@@.
.@@@@.@.
........
........
ENDCHAR # a
STARTCHAR 62
ENCODING 98
SWIDTH 480 0
DWIDTH 8 0
BBX 8 16 0 -2
BITMAP
........
@.......
@.......
@.......
@.......
@.@@@...
@@...@..
@.....@.
@.....@.
@.....@.
@.....@.
@.....@.
@@...@..
@.@@@...
........
........
ENDCHAR # b
STARTCHAR 63
ENCODING 99
SWIDTH 480 0
DWIDTH 8 0
BBX 8 16 0 -2
BITMAP
........
........
........
........
........
..@@@...
.@...@..
@.....@.
@.......
@.......
@.......
@.....@.
.@...@..
..@@@...
........
........
ENDCHAR # c
STARTCHAR 64
ENCODING 100
SWIDTH 480 0
DWIDTH 8 0
BBX 8 16 0 -2
BITMAP
........
......@.
......@.
......@.
......@.
..@@@.@.
.@...@@.
@.....@.
@.....@.
@.....@.
@.....@.
@.....@.
.@...@@.
..@@@.@.
........
........
ENDCHAR # d
STARTCHAR 65
ENCODING 101
SWIDTH 480 0
DWIDTH 8 0
BBX 8 16 0 -2
BITMAP
........
........
........
........
........
..@@@...
.@...@..
@.....@.
@.....@.
@@@@@@@.
@.......
@.....@.
.@...@..
..@@@...
........
........
ENDCHAR # e
STARTCHAR 66
ENCODING 102
SWIDTH 480 0
DWIDTH 8 0
BBX 8 16 0 -2
BITMAP
........
....@@..
...@....
...@....
...@....
.@@@@@..
...@....
...@....
...@....
...@....
...@....
...@....
...@....
...@....
........
........
ENDCHAR # f
STARTCHAR 67
ENCODING 103
SWIDTH 480 0
DWIDTH 8 0
BBX 8 16 0 -2
BITMAP
........
........
........
........
........
..@@@.@@
.@...@..
.@...@..
.@...@..
..@@@...
.@......
.@@@@...
@....@..
@.....@.
@.....@.
.@@@@@..
ENDCHAR # g
STARTCHAR 68
ENCODING 104
SWIDTH 480 0
DWIDTH 8 0
BBX 8 16 0 -2
BITMAP
........
.@......
.@......
.@......
.@......
.@.@@@..
.@@...@.
.@....@.
.@....@.
.@....@.
.@....@.
.@....@.
.@....@.
.@....@.
........
........
ENDCHAR # h
STARTCHAR 69
ENCODING 105
SWIDTH 480 0
DWIDTH 8 0
BBX 8 16 0 -2
BITMAP
........
...@....
...@....
........
........
..@@....
...@....
...@....
...@....
...@....
...@....
...@....
...@....
...@....
........
........
ENDCHAR # i
STARTCHAR 6a
ENCODING 106
SWIDTH 480 0
DWIDTH 8 0
BBX 8 16 0 -2
BITMAP
........
....@...
....@...
........
........
...@@...
....@...
....@...
....@...
....@...
....@...
....@...
....@...
....@...
...@....
.@@.....
ENDCHAR # j
STARTCHAR 6b
ENCODING 107
SWIDTH 480 0
DWIDTH 8 0
BBX 8 16 0 -2
BITMAP
........
.@......
.@......
.@......
.@......
.@....@.
.@...@..
.@..@...
.@.@....
.@@.@...
.@...@..
.@...@..
.@....@.
.@....@.
........
........
ENDCHAR # k
STARTCHAR 6c
ENCODING 108
SWIDTH 480 0
DWIDTH 8 0
BBX 8 16 0 -2
BITMAP
........
..@@....
...@....
...@....
...@....
...@....
...@....
...@....
...@....
...@....
...@....
...@....
...@....
...@....
........
........
ENDCHAR # l
STARTCHAR 6d
ENCODING 109
SWIDTH 480 0
DWIDTH 8 0
BBX 8 16 0 -2
BITMAP
........
........
........
........
........
@@@.@@..
@..@..@.
@..@..@.
@..@..@.
@..@..@.
@..@..@.
@..@..@.
@..@..@.
@..@..@.
........
........
ENDCHAR # m
STARTCHAR 6e
ENCODING 110
SWIDTH 480 0
DWIDTH 8 0
BBX 8 16 0 -2
BITMAP
........
........
........
........
........
.@.@@@..
.@@...@.
.@....@.
.@....@.
.@....@.
.@....@.
.@....@.
.@....@.
.@....@.
........
........
ENDCHAR # n
STARTCHAR 6f
ENCODING 111
SWIDTH 480 0
DWIDTH 8 0
BBX 8 16 0 -2
BITMAP
........
........
........
........
........
..@@@...
.@...@..
@.....@.
@.....@.
@.....@.
@.....@.
@.....@.
.@...@..
..@@@...
........
........
ENDCHAR # o
STARTCHAR 70
ENCODING 112
SWIDTH 480 0
DWIDTH 8 0
BBX 8 16 0 -2
BITMAP
........
........
........
........
........
@.@@@...
@@...@..
@.....@.
@.....@.
@.....@.
@.....@.
@@...@..
@.@@@...
@.......
@.......
@.......
ENDCHAR # p
STARTCHAR 71
ENCODING 113
SWIDTH 480 0
DWIDTH 8 0
BBX 8 16 0 -2
BITMAP
........
........
........
........
........
..@@@.@.
.@...@@.
@.....@.
@.....@.
@.....@.
@.....@.
.@...@@.
..@@@.@.
......@.
......@.
......@.
ENDCHAR # q
STARTCHAR 72
ENCODING 114
SWIDTH 480 0
DWIDTH 8 0
BBX 8 16 0 -2
BITMAP
........
........
........
........
........
..@.@@..
..@@....
..@.....
..@.....
..@.....
..@.....
..@.....
..@.....
..@.....
........
........
ENDCHAR # r
STARTCHAR 73
ENCODING 115
SWIDTH 480 0
DWIDTH 8 0
BBX 8 16 0 -2
BITMAP
........
........
........
........
........
..@@@@..
.@....@.
.@......
.@@.....
...@@...
.....@@.
......@.
.@....@.
..@@@@..
........
........
ENDCHAR # s
STARTCHAR 74
ENCODING 116
SWIDTH 480 0
DWIDTH 8 0
BBX 8 16 0 -2
BITMAP
........
........
...@....
...@....
...@....
.@@@@@..
...@....
...@....
...@....
...@....
...@....
...@....
...@....
....@@..
........
........
ENDCHAR # t
STARTCHAR 75
ENCODING 117
SWIDTH 480 0
DWIDTH 8 0
BBX 8 16 0 -2
BITMAP
........
........
........
........
........
.@....@.
.@....@.
.@....@.
.@....@.
.@....@.
.@....@.
.@....@.
.@...@@.
..@@@.@.
........
........
ENDCHAR # u
STARTCHAR 76
ENCODING 118
SWIDTH 480 0
DWIDTH 8 0
BBX 8 16 0 -2
BITMAP
........
........
........
........
........
@.....@.
@.....@.
@.....@.
.@...@..
.@...@..
..@.@...
..@.@...
...@....
...@....
........
........
ENDCHAR # v
STARTCHAR 77
ENCODING 119
SWIDTH 480 0
DWIDTH 8 0
BBX 8 16 0 -2
BITMAP
........
........
........
........
........
@..@..@.
@..@..@.
@..@..@.
@..@..@.
@.@.@.@.
@.@.@.@.
.@...@..
.@...@..
.@...@..
........
........
ENDCHAR # w
STARTCHAR 78
ENCODING 120
SWIDTH 480 0
DWIDTH 8 0
BBX 8 16 0 -2
BITMAP
........
........
........
........
........
@.....@.
.@...@..
..@.@...
..@.@...
...@....
..@.@...
..@.@...
.@...@..
@.....@.
........
........
ENDCHAR # x
STARTCHAR 79
ENCODING 121
SWIDTH 480 0
DWIDTH 8 0
BBX 8 16 0 -2
BITMAP
........
........
........
........
........
@.....@.
@.....@.
.@...@..
.@...@..
..@.@...
..@.@...
...@@...
...@....
...@....
..@.....
@@......
ENDCHAR # y
STARTCHAR 7a
ENCODING 122
SWIDTH 480 0
DWIDTH 8 0
BBX 8 16 0 -2
BITMAP
........
........
........
........
........
.@@@@@@.
.....@..
....@...
....@...
...@....
...@....
..@.....
.@......
@@@@@@@.
........
........
ENDCHAR # z
STARTCHAR 7b
ENCODING 123
SWIDTH 480 0
DWIDTH 8 0
BBX 8 16 0 -2
BITMAP
.....@..
....@...
....@...
....@...
....@...
....@...
....@...
...@....
....@...
....@...
....@...
....@...
....@...
....@...
....@...
.....@..
ENDCHAR # {
STARTCHAR 7c
ENCODING 124
SWIDTH 480 0
DWIDTH 8 0
BBX 8 16 0 -2
BITMAP
...@....
...@....
...@....
...@....
...@....
...@....
...@....
...@....
...@....
...@....
...@....
...@....
...@....
...@....
...@....
...@....
ENDCHAR # |
STARTCHAR 7d
ENCODING 125
SWIDTH 480 0
DWIDTH 8 0
BBX 8 16 0 -2
BITMAP
.@......
..@.....
..@.....
..@.....
..@.....
..@.....
..@.....
...@....
..@.....
..@.....
..@.....
..@.....
..@.....
..@.....
..@.....
.@......
ENDCHAR # }
STARTCHAR 7e
ENCODING 126
SWIDTH 480 0
DWIDTH 8 0
BBX 8 16 0 -2
BITMAP
........
........
........
.@@.....
@..@..@.
....@@..
........
........
........
........
........
........
........
........
........
........
ENDCHAR # ~
STARTCHAR a1
ENCODING 161
SWIDTH 480 0
DWIDTH 8 0
BBX 8 16 0 -2
BITMAP
........
...@....
...@....
........
........
...@....
...@....
...@....
...@....
...@....
...@....
...@....
..@@....
..@@....
..@@....
..@@....
ENDCHAR
STARTCHAR a2
ENCODING 162
SWIDTH 480 0
DWIDTH 8 0
BBX 8 16 0 -2
BITMAP
........
........
...@....
..@@@@..
.@.@..@.
@..@..@.
@..@....
@..@....
@..@....
@..@....
@..@....
@..@..@.
.@.@..@.
..@@@@..
...@....
........
ENDCHAR
STARTCHAR a3
ENCODING 163
SWIDTH 480 0
DWIDTH 8 0
BBX 8 16 0 -2
BITMAP
........
........
........
........
....@@..
...@..@.
...@....
...@....
...@....
.@@@@@..
...@....
...@....
..@@@@..
.@.@..@.
..@.....
........
ENDCHAR
STARTCHAR a4
ENCODING 164
SWIDTH 480 0
DWIDTH 8 0
BBX 8 16 0 -2
BITMAP
........
........
........
........
........
.@....@.
..@@@@..
..@..@..
..@..@..
..@@@@..
.@....@.
........
........
........
........
........
ENDCHAR
STARTCHAR a5
ENCODING 165
SWIDTH 480 0
DWIDTH 8 0
BBX 8 16 0 -2
BITMAP
@.....@.
@.....@.
.@...@..
.@...@..
.@...@..
..@.@...
..@.@...
@@@@@@@.
...@....
@@@@@@@.
...@....
...@....
...@....
...@....
........
........
ENDCHAR
STARTCHAR a6
ENCODING 166
SWIDTH 480 0
DWIDTH 8 0
BBX 8 16 0 -2
BITMAP
........
...@....
...@....
...@....
...@....
...@....
........
........
........
...@....
...@....
...@....
...@....
...@....
........
........
ENDCHAR
STARTCHAR a7
ENCODING 167
SWIDTH 480 0
DWIDTH 8 0
BBX 8 16 0 -2
BITMAP
........
..@@@@..
.@....@.
.@......
..@.....
..@@@@..
.@....@.
.@....@.
.@....@.
..@@@@..
.....@..
......@.
.@....@.
..@@@@..
........
........
ENDCHAR
STARTCHAR a8
ENCODING 168
SWIDTH 480 0
DWIDTH 8 0
BBX 8 16 0 -2
BITMAP
........
..@..@..
..@..@..
..@..@..
........
........
........
........
........
........
........
........
........
........
........
........
ENDCHAR
STARTCHAR a9
ENCODING 169
SWIDTH 480 0
DWIDTH 8 0
BBX 8 16 0 -2
BITMAP
........
........
..@@@@..
.@....@.
@..@@..@
@.@..@.@
@.@....@
@.@....@
@.@....@
@.@..@.@
@.@..@.@
@..@@.@@
.@....@.
..@@@@..
........
........
ENDCHAR
STARTCHAR aa
ENCODING 170
SWIDTH 480 0
DWIDTH 8 0
BBX 8 16 0 -2
BITMAP
........
...@@@..
..@...@.
...@@@@.
..@...@.
..@..@@.
...@@.@.
........
..@@@@@.
........
........
........
........
........
........
........
ENDCHAR
STARTCHAR ab
ENCODING 171
SWIDTH 480 0
DWIDTH 8 0
BBX 8 16 0 -2
BITMAP
........
........
........
....@..@
...@..@.
..@..@..
.@..@...
@..@....
@..@....
.@..@...
..@..@..
...@..@.
....@..@
........
........
........
ENDCHAR
STARTCHAR ac
ENCODING 172
SWIDTH 480 0
DWIDTH 8 0
BBX 8 16 0 -2
BITMAP
........
........
........
........
........
........
........
@@@@@@@.
@@@@@@@.
.....@@.
.....@@.
........
........
........
........
........
ENDCHAR
STARTCHAR ad
ENCODING 173
SWIDTH 480 0
DWIDTH 8 0
BBX 8 16 0 -2
BITMAP
........
........
........
........
........
........
........
@@@@@@@.
@@@@@@@.
........
........
........
........
........
........
........
ENDCHAR
STARTCHAR ae
ENCODING 174
SWIDTH 480 0
DWIDTH 8 0
BBX 8 16 0 -2
BITMAP
........
........
..@@@@..
.@....@.
@.@@@..@
@.@..@.@
@.@..@.@
@.@@@..@
@.@.@..@
@.@..@.@
@.@..@.@
@.@...@@
.@....@.
..@@@@..
........
........
ENDCHAR
STARTCHAR af
ENCODING 175
SWIDTH 480 0
DWIDTH 8 0
BBX 8 16 0 -2
BITMAP
........
........
@@@@@@@.
........
........
........
........
........
........
........
........
........
........
........
........
........
ENDCHAR
STARTCHAR b0
ENCODING 176
SWIDTH 480 0
DWIDTH 8 0
BBX 8 16 0 -2
BITMAP
........
..@@@...
.@...@..
.@...@..
.@...@..
..@@@...
........
........
........
........
........
........
........
........
........
........
ENDCHAR
STARTCHAR b1
ENCODING 177
SWIDTH 480 0
DWIDTH 8 0
BBX 8 16 0 -2
BITMAP
........
........
........
........
...@....
...@....
...@....
@@@@@@@.
...@....
...@....
...@....
........
@@@@@@@.
........
........
........
ENDCHAR
STARTCHAR b2
ENCODING 178
SWIDTH 480 0
DWIDTH 8 0
BBX 8 16 0 -2
BITMAP
........
...@@...
..@..@..
.....@..
....@...
...@....
..@.....
..@@@@..
........
........
........
........
........
........
........
........
ENDCHAR
STARTCHAR b3
ENCODING 179
SWIDTH 480 0
DWIDTH 8 0
BBX 8 16 0 -2
BITMAP
........
...@@...
..@..@..
.....@..
...@@...
.....@..
..@..@..
...@@...
........
........
........
........
........
........
........
........
ENDCHAR
STARTCHAR b4
ENCODING 180
SWIDTH 480 0
DWIDTH 8 0
BBX 8 16 0 -2
BITMAP
........
....@@..
...@@...
..@@....
........
........
........
........
........
........
........
........
........
........
........
........
ENDCHAR
STARTCHAR b5
ENCODING 181
SWIDTH 480 0
DWIDTH 8 0
BBX 8 16 0 -2
BITMAP
........
........
........
........
........
........
........
..@...@.
..@...@.
..@...@.
.@...@..
.@...@..
.@@.@@..
.@.@.@..
@.....@.
@.......
ENDCHAR
STARTCHAR b6
ENCODING 182
SWIDTH 480 0
DWIDTH 8 0
BBX 8 16 0 -2
BITMAP
........
..@@@@..
.@@@.@..
.@@@.@..
.@@@.@..
.@@@.@..
..@@.@..
...@.@..
...@.@..
...@.@..
...@.@..
...@.@..
...@.@..
...@.@..
........
........
ENDCHAR
STARTCHAR b7
ENCODING 183
SWIDTH 480 0
DWIDTH 8 0
BBX 8 16 0 -2
BITMAP
........
........
........
........
........
........
...@@...
...@@...
........
........
........
........
........
........
........
........
ENDCHAR
STARTCHAR b8
ENCODING 184
SWIDTH 480 0
DWIDTH 8 0
BBX 8 16 0 -2
BITMAP
........
........
........
........
........
........
........
........
........
........
........
........
........
....@@..
....@...
...@....
ENDCHAR
STARTCHAR b9
ENCODING 185
SWIDTH 480 0
DWIDTH 8 0
BBX 8 16 0 -2
BITMAP
........
....@...
...@@...
..@.@...
....@...
....@...
....@...
....@...
........
........
........
........
........
........
........
........
ENDCHAR
STARTCHAR ba
ENCODING 186
SWIDTH 480 0
DWIDTH 8 0
BBX 8 16 0 -2
BITMAP
........
...@@...
..@..@..
..@..@..
..@..@..
..@..@..
...@@...
........
..@@@@..
........
........
........
........
........
........
........
ENDCHAR
STARTCHAR bb
ENCODING 187
SWIDTH 480 0
DWIDTH 8 0
BBX 8 16 0 -2
BITMAP
........
........
........
........
@..@....
.@..@...
..@..@..
...@..@.
....@..@
....@..@
...@..@.
..@..@..
.@..@...
@..@....
........
........
ENDCHAR
STARTCHAR bc
ENCODING 188
SWIDTH 480 0
DWIDTH 8 0
BBX 8 16 0 -2
BITMAP
........
.@......
@@...@..
.@...@..
.@..@...
.@..@...
.@.@....
...@..@.
..@...@.
..@..@@.
.@..@.@.
.@.@@@@@
@.....@.
@.....@.
........
........
ENDCHAR
STARTCHAR bd
ENCODING 189
SWIDTH 480 0
DWIDTH 8 0
BBX 8 16 0 -2
BITMAP
........
.@......
@@...@..
.@...@..
.@..@...
.@..@...
.@.@....
...@@@..
..@@..@.
..@...@.
.@...@..
.@..@...
@...@...
@..@@@@.
........
........
ENDCHAR
STARTCHAR be
ENCODING 190
SWIDTH 480 0
DWIDTH 8 0
BBX 8 16 0 -2
BITMAP
........
.@@.....
@..@..@.
...@..@.
.@@..@..
...@.@..
@..@@...
.@@.@.@.
...@..@.
...@.@@.
..@.@.@.
..@@@@@@
.@....@.
.@....@.
........
........
ENDCHAR
STARTCHAR bf
ENCODING 191
SWIDTH 480 0
DWIDTH 8 0
BBX 8 16 0 -2
BITMAP
....@...
....@...
........
........
....@...
....@...
....@...
...@....
..@.....
..@.....
.@.....@
.@.....@
.@.....@
..@...@.
...@@@..
........
ENDCHAR
STARTCHAR c0
ENCODING 192
SWIDTH 480 0
DWIDTH 8 0
BBX 8 16 0 -2
BITMAP
..@@....
...@....
....@...
...@....
...@....
..@.@...
..@.@...
.@...@..
.@...@..
.@@@@@..
@.....@.
@.....@.
@.....@.
@.....@.
........
........
ENDCHAR
STARTCHAR c1
ENCODING 193
SWIDTH 480 0
DWIDTH 8 0
BBX 8 16 0 -2
BITMAP
...@@...
...@....
..@.....
...@....
...@....
..@.@...
..@.@...
.@...@..
.@...@..
.@@@@@..
@.....@.
@.....@.
@.....@.
@.....@.
........
........
ENDCHAR
STARTCHAR c2
ENCODING 194
SWIDTH 480 0
DWIDTH 8 0
BBX 8 16 0 -2
BITMAP
...@....
..@@@...
.@...@..
...@....
...@....
..@.@...
..@.@...
.@...@..
.@...@..
.@@@@@..
@.....@.
@.....@.
@.....@.
@.....@.
........
........
ENDCHAR
STARTCHAR c3
ENCODING 195
SWIDTH 480 0
DWIDTH 8 0
BBX 8 16 0 -2
BITMAP
..@@.@..
.@.@@...
........
...@....
...@....
..@.@...
..@.@...
.@...@..
.@...@..
.@@@@@..
@.....@.
@.....@.
@.....@.
@.....@.
........
........
ENDCHAR
STARTCHAR c4
ENCODING 196
SWIDTH 480 0
DWIDTH 8 0
BBX 8 16 0 -2
BITMAP
.@...@..
.@...@..
........
...@....
...@....
..@.@...
..@.@...
.@...@..
.@...@..
.@@@@@..
@.....@.
@.....@.
@.....@.
@.....@.
........
........
ENDCHAR
STARTCHAR c5
ENCODING 197
SWIDTH 480 0
DWIDTH 8 0
BBX 8 16 0 -2
BITMAP
...@....
..@.@...
...@....
...@....
...@....
..@.@...
..@.@...
.@...@..
.@...@..
.@@@@@..
@.....@.
@.....@.
@.....@.
@.....@.
........
........
ENDCHAR
STARTCHAR c6
ENCODING 198
SWIDTH 480 0
DWIDTH 8 0
BBX 8 16 0 -2
BITMAP
........
........
...@@@@@
..@.@...
..@.@...
..@.@...
..@.@@@.
.@..@...
.@..@...
.@@@@...
@...@...
@...@...
@...@...
@...@@@@
........
........
ENDCHAR
STARTCHAR c7
ENCODING 199
SWIDTH 480 0
DWIDTH 8 0
BBX 8 16 0 -2
BITMAP
........
..@@@...
.@...@..
.@....@.
@.......
@.......
@.......
@.......
@.......
@.......
.@....@.
.@...@..
..@@@...
....@...
....@...
...@....
ENDCHAR
STARTCHAR c8
ENCODING 200
SWIDTH 480 0
DWIDTH 8 0
BBX 8 16 0 -2
BITMAP
..@@....
...@....
....@...
@@@@@@@.
@.......
@.......
@.......
@@@@@@..
@.......
@.......
@.......
@.......
@.......
@@@@@@@.
........
........
ENDCHAR
STARTCHAR c9
ENCODING 201
SWIDTH 480 0
DWIDTH 8 0
BBX 8 16 0 -2
BITMAP
...@@...
...@....
..@.....
@@@@@@@.
@.......
@.......
@.......
@@@@@@..
@.......
@.......
@.......
@.......
@.......
@@@@@@@.
........
........
ENDCHAR
STARTCHAR ca
ENCODING 202
SWIDTH 480 0
DWIDTH 8 0
BBX 8 16 0 -2
BITMAP
...@....
..@@@...
.@...@..
@@@@@@@.
@.......
@.......
@.......
@@@@@@..
@.......
@.......
@.......
@.......
@.......
@@@@@@@.
........
........
ENDCHAR
STARTCHAR cb
ENCODING 203
SWIDTH 480 0
DWIDTH 8 0
BBX 8 16 0 -2
BITMAP
.@...@..
.@...@..
........
@@@@@@@.
@.......
@.......
@.......
@@@@@@..
@.......
@.......
@.......
@.......
@.......
@@@@@@@.
........
........
ENDCHAR
STARTCHAR cc
ENCODING 204
SWIDTH 480 0
DWIDTH 8 0
BBX 8 16 0 -2
BITMAP
..@@....
...@....
....@...
..@@@...
...@....
...@....
...@....
...@....
...@....
...@....
...@....
...@....
...@....
..@@@...
........
........
ENDCHAR
STARTCHAR cd
ENCODING 205
SWIDTH 480 0
DWIDTH 8 0
BBX 8 16 0 -2
BITMAP
...@@...
...@....
..@.....
..@@@...
...@....
...@....
...@....
...@....
...@....
...@....
...@....
...@....
...@....
..@@@...
........
........
ENDCHAR
STARTCHAR ce
ENCODING 206
SWIDTH 480 0
DWIDTH 8 0
BBX 8 16 0 -2
BITMAP
...@....
..@@@...
.@...@..
..@@@...
...@....
...@....
...@....
...@....
...@....
...@....
...@....
...@....
...@....
..@@@...
........
........
ENDCHAR
STARTCHAR cf
ENCODING 207
SWIDTH 480 0
DWIDTH 8 0
BBX 8 16 0 -2
BITMAP
.@...@..
.@...@..
........
..@@@...
...@....
...@....
...@....
...@....
...@....
...@....
...@....
...@....
...@....
..@@@...
........
........
ENDCHAR
STARTCHAR d0
ENCODING 208
SWIDTH 480 0
DWIDTH 8 0
BBX 8 16 0 -2
BITMAP
........
.@@@....
.@..@...
.@...@..
.@...@..
.@....@.
.@....@.
@@@@..@.
.@....@.
.@....@.
.@...@..
.@...@..
.@..@...
.@@@....
........
........
ENDCHAR
STARTCHAR d1
ENCODING 209
SWIDTH 480 0
DWIDTH 8 0
BBX 8 16 0 -2
BITMAP
..@@.@..
.@.@@...
@.....@.
@.....@.
@@....@.
@@....@.
@.@...@.
@.@...@.
@..@..@.
@...@.@.
@...@.@.
@....@@.
@....@@.
@.....@.
........
........
ENDCHAR
STARTCHAR d2
ENCODING 210
SWIDTH 480 0
DWIDTH 8 0
BBX 8 16 0 -2
BITMAP
..@@....
...@....
....@...
..@@@...
.@...@..
@.....@.
@.....@.
@.....@.
@.....@.
@.....@.
@.....@.
@.....@.
.@...@..
..@@@...
........
........
ENDCHAR
STARTCHAR d3
ENCODING 211
SWIDTH 480 0
DWIDTH 8 0
BBX 8 16 0 -2
BITMAP
...@@...
...@....
..@.....
..@@@...
.@...@..
@.....@.
@.....@.
@.....@.
@.....@.
@.....@.
@.....@.
@.....@.
.@...@..
..@@@...
........
........
ENDCHAR
STARTCHAR d4
ENCODING 212
SWIDTH 480 0
DWIDTH 8 0
BBX 8 16 0 -2
BITMAP
...@....
..@@@...
.@...@..
..@@@...
.@...@..
@.....@.
@.....@.
@.....@.
@.....@.
@.....@.
@.....@.
@.....@.
.@...@..
..@@@...
........
........
ENDCHAR
STARTCHAR d5
ENCODING 213
SWIDTH 480 0
DWIDTH 8 0
BBX 8 16 0 -2
BITMAP
..@@.@..
.@.@@...
........
..@@@...
.@...@..
@.....@.
@.....@.
@.....@.
@.....@.
@.....@.
@.....@.
@.....@.
.@...@..
..@@@...
........
........
ENDCHAR
STARTCHAR d6
ENCODING 214
SWIDTH 480 0
DWIDTH 8 0
BBX 8 16 0 -2
BITMAP
.@...@..
.@...@..
........
..@@@...
.@...@..
@.....@.
@.....@.
@.....@.
@.....@.
@.....@.
@.....@.
@.....@.
.@...@..
..@@@...
........
........
ENDCHAR
STARTCHAR d7
ENCODING 215
SWIDTH 480 0
DWIDTH 8 0
BBX 8 16 0 -2
BITMAP
........
........
........
........
@......@
.@....@.
..@..@..
...@@...
...@@...
..@..@..
.@....@.
@......@
........
........
........
........
ENDCHAR
STARTCHAR d8
ENCODING 216
SWIDTH 480 0
DWIDTH 8 0
BBX 8 16 0 -2
BITMAP
......@.
......@.
..@@@@..
.@...@..
@....@@.
@...@.@.
@...@.@.
@..@..@.
@..@..@.
@.@...@.
@.@...@.
@@....@.
.@...@..
.@@@@...
@.......
@.......
ENDCHAR
STARTCHAR d9
ENCODING 217
SWIDTH 480 0
DWIDTH 8 0
BBX 8 16 0 -2
BITMAP
..@@....
...@....
....@...
@.....@.
@.....@.
@.....@.
@.....@.
@.....@.
@.....@.
@.....@.
@.....@.
@.....@.
.@...@..
..@@@...
........
........
ENDCHAR
STARTCHAR da
ENCODING 218
SWIDTH 480 0
DWIDTH 8 0
BBX 8 16 0 -2
BITMAP
...@@...
...@....
..@.....
@.....@.
@.....@.
@.....@.
@.....@.
@.....@.
@.....@.
@.....@.
@.....@.
@.....@.
.@...@..
..@@@...
........
........
ENDCHAR
STARTCHAR db
ENCODING 219
SWIDTH 480 0
DWIDTH 8 0
BBX 8 16 0 -2
BITMAP
...@....
..@@@...
.@...@..
........
@.....@.
@.....@.
@.....@.
@.....@.
@.....@.
@.....@.
@.....@.
@.....@.
.@...@..
..@@@...
........
........
ENDCHAR
STARTCHAR dc
ENCODING 220
SWIDTH 480 0
DWIDTH 8 0
BBX 8 16 0 -2
BITMAP
.@...@..
.@...@..
........
@.....@.
@.....@.
@.....@.
@.....@.
@.....@.
@.....@.
@.....@.
@.....@.
@.....@.
.@...@..
..@@@...
........
........
ENDCHAR
STARTCHAR dd
ENCODING 221
SWIDTH 480 0
DWIDTH 8 0
BBX 8 16 0 -2
BITMAP
...@@...
...@....
@.@...@.
@.....@.
.@...@..
.@...@..
..@.@...
..@.@...
...@....
...@....
...@....
...@....
...@....
...@....
........
........
ENDCHAR
STARTCHAR de
ENCODING 222
SWIDTH 480 0
DWIDTH 8 0
BBX 8 16 0 -2
BITMAP
@.......
@.......
@@@@@...
@....@..
@.....@.
@.....@.
@....@..
@@@@@...
@.......
@.......
@.......
@.......
@.......
@.......
........
........
ENDCHAR
STARTCHAR df
ENCODING 223
SWIDTH 480 0
DWIDTH 8 0
BBX 8 16 0 -2
BITMAP
........
.@@@@...
@....@..
@.....@.
@.....@.
@....@..
@.@@@...
@....@..
@.....@.
@.....@.
@.....@.
@.....@.
@....@..
@.@@@...
........
........
ENDCHAR
STARTCHAR e0
ENCODING 224
SWIDTH 480 0
DWIDTH 8 0
BBX 8 16 0 -2
BITMAP
........
..@@....
...@....
....@...
........
..@@@@..
.@....@.
......@.
..@@@@@.
.@....@.
@.....@.
@.....@.
@....@@.
.@@@@.@.
........
........
ENDCHAR
STARTCHAR e1
ENCODING 225
SWIDTH 480 0
DWIDTH 8 0
BBX 8 16 0 -2
BITMAP
........
...@@...
...@....
..@.....
........
..@@@@..
.@....@.
......@.
..@@@@@.
.@....@.
@.....@.
@.....@.
@....@@.
.@@@@.@.
........
........
ENDCHAR
STARTCHAR e2
ENCODING 226
SWIDTH 480 0
DWIDTH 8 0
BBX 8 16 0 -2
BITMAP
........
...@....
..@@@...
.@...@..
........
..@@@@..
.@....@.
......@.
..@@@@@.
.@....@.
@.....@.
@.....@.
@....@@.
.@@@@.@.
........
........
ENDCHAR
STARTCHAR e3
ENCODING 227
SWIDTH 480 0
DWIDTH 8 0
BBX 8 16 0 -2
BITMAP
........
..@@.@..
.@.@@...
........
........
..@@@@..
.@....@.
......@.
..@@@@@.
.@....@.
@.....@.
@.....@.
@....@@.
.@@@@.@.
........
........
ENDCHAR
STARTCHAR e4
ENCODING 228
SWIDTH 480 0
DWIDTH 8 0
BBX 8 16 0 -2
BITMAP
........
........
..@..@..
..@..@..
........
..@@@@..
.@....@.
......@.
..@@@@@.
.@....@.
@.....@.
@.....@.
@....@@.
.@@@@.@.
........
........
ENDCHAR
STARTCHAR e5
ENCODING 229
SWIDTH 480 0
DWIDTH 8 0
BBX 8 16 0 -2
BITMAP
........
...@....
..@.@...
...@....
........
..@@@@..
.@....@.
......@.
..@@@@@.
.@....@.
@.....@.
@.....@.
@....@@.
.@@@@.@.
........
........
ENDCHAR
STARTCHAR e6
ENCODING 230
SWIDTH 480 0
DWIDTH 8 0
BBX 8 16 0 -2
BITMAP
........
........
........
........
........
.@@.@@..
@..@..@.
...@..@.
..@@@@@.
.@.@....
@..@....
@..@..@.
@..@..@.
.@@.@@..
........
........
ENDCHAR
STARTCHAR e7
ENCODING 231
SWIDTH 480 0
DWIDTH 8 0
BBX 8 16 0 -2
BITMAP
........
........
........
........
..@@@...
.@...@..
@.....@.
@.......
@.......
@.......
@.....@.
.@...@..
..@@@...
...@....
...@....
..@.....
ENDCHAR
STARTCHAR e8
ENCODING 232
SWIDTH 480 0
DWIDTH 8 0
BBX 8 16 0 -2
BITMAP
........
..@@....
...@....
....@...
........
..@@@...
.@...@..
@.....@.
@.....@.
@@@@@@@.
@.......
@.....@.
.@...@..
..@@@...
........
........
ENDCHAR
STARTCHAR e9
ENCODING 233
SWIDTH 480 0
DWIDTH 8 0
BBX 8 16 0 -2
BITMAP
........
...@@...
...@....
..@.....
........
..@@@...
.@...@..
@.....@.
@.....@.
@@@@@@@.
@.......
@.....@.
.@...@..
..@@@...
........
........
ENDCHAR
STARTCHAR ea
ENCODING 234
SWIDTH 480 0
DWIDTH 8 0
BBX 8 16 0 -2
BITMAP
........
...@....
..@@@...
.@...@..
........
..@@@...
.@...@..
@.....@.
@.....@.
@@@@@@@.
@.......
@.....@.
.@...@..
..@@@...
........
........
ENDCHAR
STARTCHAR eb
ENCODING 235
SWIDTH 480 0
DWIDTH 8 0
BBX 8 16 0 -2
BITMAP
........
.@...@..
.@...@..
........
........
..@@@...
.@...@..
@.....@.
@.....@.
@@@@@@@.
@.......
@.....@.
.@...@..
..@@@...
........
........
ENDCHAR
STARTCHAR ec
ENCODING 236
SWIDTH 480 0
DWIDTH 8 0
BBX 8 16 0 -2
BITMAP
........
..@@....
...@....
....@...
........
..@@....
...@....
...@....
...@....
...@....
...@....
...@....
...@....
...@....
........
........
ENDCHAR
STARTCHAR ed
ENCODING 237
SWIDTH 480 0
DWIDTH 8 0
BBX 8 16 0 -2
BITMAP
........
...@@...
...@....
..@.....
........
..@@....
...@....
...@....
...@....
...@....
...@....
...@....
...@....
...@....
........
........
ENDCHAR
STARTCHAR ee
ENCODING 238
SWIDTH 480 0
DWIDTH 8 0
BBX 8 16 0 -2
BITMAP
........
...@....
..@@@...
.@...@..
........
..@@....
...@....
...@....
...@....
...@....
...@....
...@....
...@....
...@....
........
........
ENDCHAR
STARTCHAR ef
ENCODING 239
SWIDTH 480 0
DWIDTH 8 0
BBX 8 16 0 -2
BITMAP
........
.@...@..
.@...@..
........
........
..@@....
...@....
...@....
...@....
...@....
...@....
...@....
...@....
...@....
........
........
ENDCHAR
STARTCHAR f0
ENCODING 240
SWIDTH 480 0
DWIDTH 8 0
BBX 8 16 0 -2
BITMAP
........
.@@..@..
...@@...
..@@....
.@..@...
..@@@...
.@...@..
@.....@.
@.....@.
@.....@.
@.....@.
@.....@.
.@...@..
..@@@...
........
........
ENDCHAR
STARTCHAR f1
ENCODING 241
SWIDTH 480 0
DWIDTH 8 0
BBX 8 16 0 -2
BITMAP
........
..@@.@..
.@.@@...
........
........
.@.@@@..
.@@...@.
.@....@.
.@....@.
.@....@.
.@....@.
.@....@.
.@....@.
.@....@.
........
........
ENDCHAR
STARTCHAR f2
ENCODING 242
SWIDTH 480 0
DWIDTH 8 0
BBX 8 16 0 -2
BITMAP
........
..@@....
...@....
....@...
........
..@@@...
.@...@..
@.....@.
@.....@.
@.....@.
@.....@.
@.....@.
.@...@..
..@@@...
........
........
ENDCHAR
STARTCHAR f3
ENCODING 243
SWIDTH 480 0
DWIDTH 8 0
BBX 8 16 0 -2
BITMAP
........
...@@...
...@....
..@.....
........
..@@@...
.@...@..
@.....@.
@.....@.
@.....@.
@.....@.
@.....@.
.@...@..
..@@@...
........
........
ENDCHAR
STARTCHAR f4
ENCODING 244
SWIDTH 480 0
DWIDTH 8 0
BBX 8 16 0 -2
BITMAP
........
...@....
..@@@...
.@...@..
........
..@@@...
.@...@..
@.....@.
@.....@.
@.....@.
@.....@.
@.....@.
.@...@..
..@@@...
........
........
ENDCHAR
STARTCHAR f5
ENCODING 245
SWIDTH 480 0
DWIDTH 8 0
BBX 8 16 0 -2
BITMAP
........
..@@.@..
.@.@@...
........
........
..@@@...
.@...@..
@.....@.
@.....@.
@.....@.
@.....@.
@.....@.
.@...@..
..@@@...
........
........
ENDCHAR
STARTCHAR f6
ENCODING 246
SWIDTH 480 0
DWIDTH 8 0
BBX 8 16 0 -2
BITMAP
........
.@...@..
.@...@..
........
........
..@@@...
.@...@..
@.....@.
@.....@.
@.....@.
@.....@.
@.....@.
.@...@..
..@@@...
........
........
ENDCHAR
STARTCHAR f7
ENCODING 247
SWIDTH 480 0
DWIDTH 8 0
BBX 8 16 0 -2
BITMAP
........
........
........
........
........
...@....
...@....
........
@@@@@@@.
........
...@....
...@....
........
........
........
........
ENDCHAR
STARTCHAR f8
ENCODING 248
SWIDTH 480 0
DWIDTH 8 0
BBX 8 16 0 -2
BITMAP
........
........
........
........
........
..@@@.@.
.@...@..
@...@.@.
@...@.@.
@..@..@.
@.@...@.
@.@...@.
.@...@..
@.@@@...
........
........
ENDCHAR
STARTCHAR f9
ENCODING 249
SWIDTH 480 0
DWIDTH 8 0
BBX 8 16 0 -2
BITMAP
........
..@@....
...@....
....@...
........
.@....@.
.@....@.
.@....@.
.@....@.
.@....@.
.@....@.
.@....@.
.@...@@.
..@@@.@.
........
........
ENDCHAR
STARTCHAR fa
ENCODING 250
SWIDTH 480 0
DWIDTH 8 0
BBX 8 16 0 -2
BITMAP
........
...@@...
...@....
..@.....
........
.@....@.
.@....@.
.@....@.
.@....@.
.@....@.
.@....@.
.@....@.
.@...@@.
..@@@.@.
........
........
ENDCHAR
STARTCHAR fb
ENCODING 251
SWIDTH 480 0
DWIDTH 8 0
BBX 8 16 0 -2
BITMAP
........
...@....
..@@@...
.@...@..
........
.@....@.
.@....@.
.@....@.
.@....@.
.@....@.
.@....@.
.@....@.
.@...@@.
..@@@.@.
........
........
ENDCHAR
STARTCHAR fc
ENCODING 252
SWIDTH 480 0
DWIDTH 8 0
BBX 8 16 0 -2
BITMAP
........
..@..@..
..@..@..
........
........
.@....@.
.@....@.
.@....@.
.@....@.
.@....@.
.@....@.
.@....@.
.@...@@.
..@@@.@.
........
........
ENDCHAR
STARTCHAR fd
ENCODING 253
SWIDTH 480 0
DWIDTH 8 0
BBX 8 16 0 -2
BITMAP
........
....@@..
....@...
...@....
........
.@....@.
.@....@.
..@...@.
..@..@..
...@.@..
....@...
....@...
...@....
...@....
..@.....
.@......
ENDCHAR
STARTCHAR fe
ENCODING 254
SWIDTH 480 0
DWIDTH 8 0
BBX 8 16 0 -2
BITMAP
........
........
.@......
.@......
.@......
.@@@@...
.@...@..
.@....@.
.@....@.
.@....@.
.@...@..
.@@@@...
.@......
.@......
.@......
.@......
ENDCHAR
STARTCHAR ff
ENCODING 255
SWIDTH 480 0
DWIDTH 8 0
BBX 8 16 0 -2
BITMAP
........
..@..@..
..@..@..
........
........
.@....@.
.@....@.
..@...@.
..@..@..
...@.@..
....@...
....@...
...@....
...@....
..@.....
.@......
ENDCHAR
ENDFONT
